<svg width="14" height="11" viewBox="0 0 14 11" fill="none" xmlns="http://www.w3.org/2000/svg">
<path d="M1 4.75C0.585786 4.75 0.25 5.08579 0.25 5.5C0.25 5.91421 0.585786 6.25 1 6.25V4.75ZM13 6.25C13.4142 6.25 13.75 5.91421 13.75 5.5C13.75 5.08579 13.4142 4.75 13 4.75V6.25ZM1 8.75C0.585786 8.75 0.25 9.08579 0.25 9.5C0.25 9.91421 0.585786 10.25 1 10.25V8.75ZM13 10.25C13.4142 10.25 13.75 9.91421 13.75 9.5C13.75 9.08579 13.4142 8.75 13 8.75V10.25ZM1 0.75C0.585786 0.75 0.25 1.08579 0.25 1.5C0.25 1.91421 0.585786 2.25 1 2.25V0.75ZM13 2.25C13.4142 2.25 13.75 1.91421 13.75 1.5C13.75 1.08579 13.4142 0.75 13 0.75V2.25ZM1 6.25H13V4.75H1V6.25ZM1 10.25H13V8.75H1V10.25ZM1 2.25H13V0.75H1V2.25Z" fill="#161818"/>
</svg>
