<svg width="162" height="109" viewBox="0 0 162 109" fill="none" xmlns="http://www.w3.org/2000/svg">
<path d="M130.489 94.5261C93.0619 94.9065 58.3273 95.0516 33.7618 95.0516C27.715 95.0516 24.6042 91.3838 24.6042 85.0674C24.6042 68.8196 24.361 44.6688 24.6042 24.6369C24.6333 22.2185 25.3263 18.6937 26.8936 16.7546C28.8383 14.349 32.889 12.5508 36.6235 12.5508C74.5584 12.8237 99.2063 12.5508 133.351 12.5508C137.836 12.7918 140.766 13.2519 142.508 16.7546C143.789 19.3314 143.653 23.3039 143.653 25.1624C143.653 36.3324 143.653 68.6768 143.653 81.9145C143.653 91.1377 138.866 94.1253 130.489 94.5261Z" fill="#6F42C1" stroke="#161818" stroke-linecap="round" stroke-linejoin="round"/>
<path d="M138.577 51.0957C137.792 50.8403 135.826 51.7052 135.392 52.9138C134.951 54.1407 135.704 55.4277 136.757 56.0955C137.077 56.2986 137.751 56.5671 138.122 56.5501C139.449 56.4897 140.962 55.8591 140.852 54.2774C140.778 53.2119 140.2 51.623 138.577 51.0957Z" fill="white"/>
<path d="M138.577 51.0957C137.792 50.8403 135.826 51.7052 135.392 52.9138C134.951 54.1407 135.704 55.4277 136.757 56.0955C137.077 56.2986 137.751 56.5671 138.122 56.5501C139.449 56.4897 140.962 55.8591 140.852 54.2774C140.778 53.2119 140.2 51.623 138.577 51.0957Z" stroke="#161818" stroke-linecap="round" stroke-linejoin="round"/>
<path d="M124.839 89.5285C93.8685 89.8927 56.9439 90.1216 36.6169 90.0956C35.5607 90.094 30.2007 90.4774 30.2007 84.4253C30.2007 68.8577 29.9996 48.0503 30.2007 28.8568C30.2252 26.5402 30.5545 24.2403 31.2701 22.0525C31.9857 19.8646 33.5275 16.9492 36.6169 16.9492C68.0069 17.2106 96.0503 16.9492 124.304 16.9492C128.015 17.18 130.349 17.5623 131.79 20.9184C132.85 23.3868 132.859 27.076 132.859 28.8568C132.859 39.5597 133.004 66.8116 132.859 81.0232C132.812 85.6057 129.134 89.478 124.839 89.5285Z" fill="white"/>
<path d="M124.839 89.5285C93.8685 89.8927 56.9439 90.1216 36.6169 90.0956C35.5607 90.094 30.2007 90.4774 30.2007 84.4253C30.2007 68.8577 29.9996 48.0503 30.2007 28.8568C30.2252 26.5402 30.5545 24.2403 31.2701 22.0525C31.9857 19.8646 33.5275 16.9492 36.6169 16.9492C68.0069 17.2106 96.0503 16.9492 124.304 16.9492C128.015 17.18 130.349 17.5623 131.79 20.9184C132.85 23.3868 132.859 27.076 132.859 28.8568C132.859 39.5597 133.004 66.8116 132.859 81.0232C132.812 85.6057 129.134 89.478 124.839 89.5285Z" stroke="#161818" stroke-linecap="round" stroke-linejoin="round"/>
<path d="M148.891 35.6668C152.647 35.1418 155.843 31.9032 156.289 28.1699C155.971 31.3848 157.982 34.6925 160.999 35.9149C159.454 36.0018 158.086 37.0563 157.295 38.3737C156.503 39.6912 156.208 41.2425 156.062 42.7694C155.98 38.9849 152.569 35.5725 148.891 35.6668Z" stroke="#161818" stroke-linecap="round" stroke-linejoin="round"/>
<path d="M1 12.9884C7.00707 12.1485 12.1171 6.97005 12.8305 1C12.321 6.14127 15.5373 11.4296 20.3619 13.3849C17.8911 13.5238 15.7044 15.2111 14.438 17.3172C13.1715 19.4241 12.6994 21.9045 12.4671 24.3455C12.3345 18.2945 6.88043 12.8384 1 12.9884Z" stroke="#161818" stroke-linecap="round" stroke-linejoin="round"/>
<path d="M93.8549 63.765C93.8163 65.3937 92.4849 66.6939 90.8557 66.6939H59.0564C57.3717 66.6939 56.0173 65.307 56.0572 63.6228L56.5082 44.6008C56.5468 42.9721 57.8782 41.6719 59.5074 41.6719H91.3067C92.9914 41.6719 94.3458 43.0588 94.3059 44.743L93.8549 63.765Z" fill="#514DF7" stroke="#161818" stroke-linecap="round" stroke-linejoin="round"/>
<path d="M94.2266 49.6576L105.237 45.0026C107.215 44.1663 109.405 45.6183 109.405 47.7658V59.2851C109.405 61.4065 107.263 62.8577 105.293 62.0715L94.3799 57.7167L94.2266 49.6576Z" fill="#514DF7" stroke="#161818" stroke-linecap="round" stroke-linejoin="round"/>
<path d="M37.6829 38.4834C33.5651 37.8492 29.3123 39.0508 25.5931 40.9237C19.1372 44.1742 14.0189 50.3656 13.0536 57.4726C12.6317 60.5783 12.9907 63.7568 13.8787 66.7548C14.8799 70.1255 16.5772 73.2797 18.8052 76.0109C19.7144 77.1255 19.8639 78.7118 19.0477 79.8962C15.5397 84.9868 11.0271 91.6041 3.01263 102.826C2.71962 103.236 2.79006 103.805 3.17375 104.134C4.86961 105.587 6.35114 106.559 8.18639 107.826C8.62852 108.132 9.24152 108.023 9.55327 107.588C15.9344 98.662 20.9811 91.579 26.5838 83.5852C26.8702 83.1766 27.4136 83.0465 27.8608 83.2681C35.5959 87.0726 40.5523 84.2706 42.8147 83.2599C48.7926 80.5678 54.8746 75.5988 56.7316 68.7837C59.0599 60.2211 58.7886 41.7146 37.6822 38.4849L37.6829 38.4834ZM49.823 66.2505C48.5768 70.817 44.5106 74.1418 40.5036 75.9449C38.9884 76.6252 35.6701 78.4981 30.4918 75.9516C26.0165 73.7512 22.5424 69.6459 21.1283 64.9004C20.5333 62.8872 20.2957 60.7588 20.5775 58.6838C21.219 53.9191 24.6481 49.7722 28.9766 47.5963C31.4593 46.3427 34.31 45.5421 37.0669 45.9602C51.1996 48.1228 51.384 60.5204 49.8237 66.2513L49.823 66.2505Z" fill="white" stroke="#161818" stroke-linecap="round" stroke-linejoin="round"/>
</svg>
