<svg width="162" height="109" viewBox="0 0 162 109" fill="none" xmlns="http://www.w3.org/2000/svg">
<path d="M130.488 94.5261C93.0609 94.9065 58.3263 95.0516 33.7608 95.0516C27.714 95.0516 24.6032 91.3838 24.6032 85.0674C24.6032 68.8196 24.36 44.6688 24.6032 24.6369C24.6324 22.2185 25.3253 18.6937 26.8926 16.7546C28.8374 14.349 32.888 12.5508 36.6226 12.5508C74.5575 12.8237 99.2054 12.5508 133.35 12.5508C137.835 12.7918 140.765 13.2519 142.507 16.7546C143.788 19.3314 143.652 23.3039 143.652 25.1624C143.652 36.3324 143.652 68.6768 143.652 81.9145C143.652 91.1377 138.865 94.1253 130.488 94.5261Z" fill="#D9FF66" stroke="#161818" stroke-linecap="round" stroke-linejoin="round"/>
<path d="M138.577 51.0962C137.792 50.8408 135.826 51.7057 135.392 52.9143C134.951 54.1412 135.704 55.4282 136.757 56.096C137.077 56.2991 137.751 56.5676 138.122 56.5506C139.449 56.4902 140.962 55.8595 140.852 54.2779C140.778 53.2124 140.2 51.6235 138.577 51.0962Z" fill="white"/>
<path d="M138.577 51.0962C137.792 50.8408 135.826 51.7057 135.392 52.9143C134.951 54.1412 135.704 55.4282 136.757 56.096C137.077 56.2991 137.751 56.5676 138.122 56.5506C139.449 56.4902 140.962 55.8595 140.852 54.2779C140.778 53.2124 140.2 51.6235 138.577 51.0962Z" stroke="#161818" stroke-linecap="round" stroke-linejoin="round"/>
<path d="M124.839 89.529C93.8685 89.8932 56.9439 90.1221 36.6169 90.0961C35.5607 90.0945 30.2007 90.4779 30.2007 84.4258C30.2007 68.8582 29.9996 48.0508 30.2007 28.8573C30.2252 26.5407 30.5545 24.2407 31.2701 22.0529C31.9857 19.8651 33.5275 16.9497 36.6169 16.9497C68.0069 17.2111 96.0503 16.9497 124.304 16.9497C128.015 17.1804 130.349 17.5628 131.79 20.9189C132.85 23.3873 132.859 27.0765 132.859 28.8573C132.859 39.5602 133.004 66.8121 132.859 81.0236C132.812 85.6062 129.134 89.4784 124.839 89.529Z" fill="white"/>
<path d="M124.839 89.529C93.8685 89.8932 56.9439 90.1221 36.6169 90.0961C35.5607 90.0945 30.2007 90.4779 30.2007 84.4258C30.2007 68.8582 29.9996 48.0508 30.2007 28.8573C30.2252 26.5407 30.5545 24.2407 31.2701 22.0529C31.9857 19.8651 33.5275 16.9497 36.6169 16.9497C68.0069 17.2111 96.0503 16.9497 124.304 16.9497C128.015 17.1804 130.349 17.5628 131.79 20.9189C132.85 23.3873 132.859 27.0765 132.859 28.8573C132.859 39.5602 133.004 66.8121 132.859 81.0236C132.812 85.6062 129.134 89.4784 124.839 89.529Z" stroke="#161818" stroke-linecap="round" stroke-linejoin="round"/>
<path d="M148.892 35.6673C152.648 35.1423 155.844 31.9036 156.29 28.1704C155.972 31.3853 157.983 34.693 161 35.9154C159.455 36.0023 158.087 37.0568 157.296 38.3742C156.504 39.6917 156.209 41.243 156.063 42.7699C155.981 38.9854 152.57 35.573 148.892 35.6673Z" stroke="#161818" stroke-linecap="round" stroke-linejoin="round"/>
<path d="M1 12.9884C7.00707 12.1485 12.1171 6.97005 12.8305 1C12.321 6.14127 15.5373 11.4296 20.3619 13.3849C17.8911 13.5238 15.7044 15.2111 14.438 17.3172C13.1715 19.4241 12.6994 21.9045 12.4671 24.3455C12.3345 18.2945 6.88043 12.8384 1 12.9884Z" stroke="#161818" stroke-linecap="round" stroke-linejoin="round"/>
<path d="M93.8539 63.765C93.8153 65.3937 92.4839 66.6939 90.8548 66.6939H59.0554C57.3707 66.6939 56.0163 65.307 56.0562 63.6228L56.5072 44.6008C56.5458 42.9721 57.8772 41.6719 59.5064 41.6719H91.3058C92.9905 41.6719 94.3449 43.0588 94.3049 44.743L93.8539 63.765Z" fill="#00B856" stroke="#161818" stroke-linecap="round" stroke-linejoin="round"/>
<path d="M94.2266 49.6581L105.237 45.0031C107.215 44.1668 109.405 45.6188 109.405 47.7662V59.2856C109.405 61.4069 107.263 62.8582 105.293 62.072L94.3799 57.7171L94.2266 49.6581Z" fill="#00B856" stroke="#161818" stroke-linecap="round" stroke-linejoin="round"/>
<path d="M37.682 38.4834C33.5641 37.8492 29.3113 39.0508 25.5921 40.9237C19.1362 44.1742 14.0179 50.3656 13.0527 57.4726C12.6308 60.5783 12.9897 63.7568 13.8777 66.7548C14.8789 70.1255 16.5762 73.2797 18.8042 76.0109C19.7134 77.1255 19.863 78.7118 19.0468 79.8962C15.5387 84.9868 11.0261 91.6041 3.01165 102.826C2.71864 103.236 2.78909 103.805 3.17277 104.134C4.86863 105.587 6.35017 106.559 8.18541 107.826C8.62755 108.132 9.24054 108.023 9.55229 107.588C15.9334 98.662 20.9802 91.579 26.5829 83.5852C26.8692 83.1766 27.4127 83.0465 27.8598 83.2681C35.5949 87.0726 40.5514 84.2706 42.8138 83.2599C48.7916 80.5678 54.8736 75.5988 56.7306 68.7837C59.0589 60.2211 58.7877 41.7146 37.6812 38.4849L37.682 38.4834ZM49.822 66.2505C48.5758 70.817 44.5096 74.1418 40.5027 75.9449C38.9874 76.6252 35.6691 78.4981 30.4909 75.9516C26.0155 73.7512 22.5414 69.6459 21.1273 64.9004C20.5323 62.8872 20.2947 60.7588 20.5765 58.6838C21.218 53.9191 24.6472 49.7722 28.9756 47.5963C31.4583 46.3427 34.309 45.5421 37.066 45.9602C51.1986 48.1228 51.383 60.5204 49.8228 66.2513L49.822 66.2505Z" fill="white" stroke="#161818" stroke-linecap="round" stroke-linejoin="round"/>
</svg>
