<svg width="431" height="246" viewBox="0 0 431 246" fill="none" xmlns="http://www.w3.org/2000/svg">
<mask id="mask0_3435_14847" style="mask-type:luminance" maskUnits="userSpaceOnUse" x="-1" y="0" width="432" height="246">
<path d="M431 0H-0.00195312V245.753H431V0Z" fill="white"/>
</mask>
<g mask="url(#mask0_3435_14847)">
<path d="M123.6 242.588C116.202 225.856 108.805 209.124 101.407 192.392C96.2283 180.677 90.4638 168.271 79.5868 161.505C73.7184 157.855 65.5468 156.399 60.1914 160.764C56.4262 163.833 55.0465 168.916 54.223 173.702C50.1163 197.577 54.8629 222.871 68.7463 244.055C87.2724 244.885 106.99 243.37 123.6 242.588Z" fill="#00B856" stroke="#273444" stroke-linecap="round" stroke-linejoin="round"/>
<path d="M68.3193 166.413C74.177 191.832 81.5237 216.907 90.3095 241.468" stroke="#273444" stroke-linecap="round" stroke-linejoin="round"/>
<path d="M79.2094 244.429C72.2758 230.848 65.3233 217.236 56.956 204.488C50.9323 195.313 43.6585 186.199 33.4147 182.253C29.794 180.857 25.5955 180.205 22.1112 181.913C18.1692 183.844 16.1064 188.333 15.4597 192.674C14.053 202.109 17.8884 211.499 22.257 219.98C26.3866 227.998 31.0698 235.729 38.0317 243.738C54.7447 243.951 66.5707 244.269 79.2094 244.431V244.429Z" fill="#00B856" stroke="#273444" stroke-linecap="round" stroke-linejoin="round"/>
<path d="M26.5391 184.707C35.3357 204.649 45.5417 223.969 57.0531 242.478L26.5391 184.707Z" fill="#00B856"/>
<path d="M26.5391 184.707C35.3357 204.649 45.5417 223.969 57.0531 242.478" stroke="#273444" stroke-linecap="round" stroke-linejoin="round"/>
<path d="M333.035 233.191C346.603 176.903 357.736 122.234 371.966 62.4032C373.04 57.8897 369.6 53.5558 364.96 53.5652C280.32 53.7339 219.172 55.4548 141.234 55.5911C137.303 55.5979 133.894 58.3108 133.021 62.1441C120.938 115.118 106.793 177.203 98.3809 232.737C172.081 232.737 253.169 233.192 333.037 233.192L333.035 233.191Z" fill="#D9FF66" stroke="#273444" stroke-linecap="round" stroke-linejoin="round"/>
<path d="M322.534 215.349C335.263 164.071 345.785 113.646 359.435 58.6631C277.356 58.6631 218.619 61.0777 143.588 61.0777C132.505 108.28 118.921 165.371 111.086 215.597C177.004 215.597 251.101 215.349 322.534 215.349Z" fill="white" stroke="#273444" stroke-linecap="round" stroke-linejoin="round"/>
<path d="M225.749 182.758C209.543 167.9 193.173 152.517 177.498 137.084C164.783 152.691 139.315 183.079 139.315 183.079C139.315 183.079 194.719 181.986 225.749 182.758Z" fill="#273444"/>
<path d="M225.749 182.758C209.543 167.9 193.173 152.517 177.498 137.084C164.783 152.691 139.315 183.079 139.315 183.079C139.315 183.079 194.719 181.986 225.749 182.758Z" stroke="#273444" stroke-linecap="round" stroke-linejoin="round"/>
<path d="M198.663 184.551C218.184 159.344 257.497 104.48 257.497 104.48L317.178 185.066C317.178 185.066 239.361 184.959 198.663 184.551Z" fill="#00B856"/>
<path d="M198.663 184.551C218.184 159.344 257.497 104.48 257.497 104.48L317.178 185.066C317.178 185.066 239.361 184.959 198.663 184.551Z" stroke="#273444" stroke-linecap="round" stroke-linejoin="round"/>
<path d="M202.609 93.2337C195.884 93.1179 189.9 100.797 190.697 106.935C191.248 111.175 196.166 114.772 200.774 115.35C205.278 115.918 211.138 114.42 213.738 111.007C216.339 107.594 215.487 102.657 212.743 99.3179C210 95.9785 204.434 93.2632 202.609 93.2337Z" fill="white" stroke="#273444" stroke-linecap="round" stroke-linejoin="round"/>
<path d="M332.845 232.508C332.672 233.618 332.588 234.597 332.552 235.501C332.348 240.668 328.083 244.741 322.91 244.74C213.406 244.724 117.943 244.442 7.13137 244.428C3.07192 244.428 0.132968 240.541 1.24807 236.639C1.26022 236.599 1.27102 236.558 1.28317 236.519C2.04997 233.837 4.52317 232.012 7.31227 232.086C52.6453 233.294 258.246 232.506 332.845 232.506V232.508Z" fill="#D9FF66" stroke="#273444" stroke-linecap="round" stroke-linejoin="round"/>
<path d="M166.928 232.471C165.384 232.747 164.034 233.779 163.184 235.096C162.333 236.413 161.951 237.994 161.893 239.561C161.851 240.678 161.981 241.842 162.553 242.803C163.126 243.764 164.218 244.474 165.327 244.335" stroke="#273444" stroke-linecap="round" stroke-linejoin="round"/>
<path d="M294.229 23.1052C290.443 26.3904 288.641 31.8892 289.717 36.8643C290.793 41.8394 294.703 46.0775 299.499 47.4704C304.296 48.8633 313.625 45.6348 317.06 41.9689C316.195 36.0882 304.533 18.944 303.037 18.176C301.829 17.5551 298.472 19.2665 294.229 23.1052Z" fill="white" stroke="#273444" stroke-linecap="round" stroke-linejoin="round"/>
<path d="M354.167 18.6929L416.266 129.176" stroke="#273444" stroke-linecap="round" stroke-linejoin="round"/>
<path d="M360.128 11.3186L423.748 122.28" stroke="#273444" stroke-linecap="round" stroke-linejoin="round"/>
<path d="M418.402 130.414C403.305 156.394 370.262 211.355 357.575 235.206" stroke="#273444" stroke-linecap="round" stroke-linejoin="round"/>
<path d="M427.483 130.736C408.39 167.047 371.152 228.926 367.68 235.529" stroke="#273444" stroke-linecap="round" stroke-linejoin="round"/>
<path d="M386.441 236.766C376.458 235.851 350.916 234.877 340.969 236.12C339.179 236.345 337.309 236.636 335.86 237.713C334.412 238.79 333.572 240.907 334.492 242.462C335.508 244.18 337.899 244.309 339.892 244.235C349.435 243.88 374.438 244.663 383.98 244.308C385.184 244.263 386.415 244.212 387.533 243.763C388.651 243.313 389.651 242.378 389.836 241.187C390.132 239.277 388.593 236.963 386.441 236.766Z" fill="white" stroke="#273444" stroke-linecap="round" stroke-linejoin="round"/>
<path d="M356.12 21.064C360.45 21.064 363.958 17.5524 363.958 13.2207C363.958 8.88899 360.45 5.37744 356.12 5.37744C351.791 5.37744 348.282 8.88899 348.282 13.2207C348.282 17.5524 351.791 21.064 356.12 21.064Z" fill="#273444" stroke="#273444" stroke-linecap="round" stroke-linejoin="round"/>
<path d="M422.15 137.019C426.479 137.019 429.988 133.507 429.988 129.175C429.988 124.844 426.479 121.332 422.15 121.332C417.82 121.332 414.312 124.844 414.312 129.175C414.312 133.507 417.82 137.019 422.15 137.019Z" fill="#273444" stroke="#273444" stroke-linecap="round" stroke-linejoin="round"/>
<path d="M323.415 16.9667L355.159 8.08951C355.159 8.08951 355.307 8.07466 355.383 8.07601" stroke="#273444" stroke-linecap="round" stroke-linejoin="round"/>
<path d="M328.378 25.9554C328.378 25.9554 346.726 20.7103 356.99 17.4143" stroke="#273444" stroke-linecap="round" stroke-linejoin="round"/>
<path d="M324.732 58.6985C311.751 46.5564 295.552 23.5138 286.866 5.41397C311.035 -5.88999 326.404 7.47366 330.691 13.2086C337.628 22.4867 341.977 46.4754 324.734 58.6999L324.732 58.6985Z" fill="white" stroke="#273444" stroke-linecap="round" stroke-linejoin="round"/>
</g>
</svg>
